M48
; DRILL file {KiCad 9.0.4} date 2026-01-08T18:44:02+0100
; FORMAT={-:-/ absolute / inch / decimal}
; #@! TF.CreationDate,2026-01-08T18:44:02+01:00
; #@! TF.GenerationSoftware,Kicad,Pcbnew,9.0.4
; #@! TF.FileFunction,Plated,1,2,PTH
FMAT,2
INCH
; #@! TA.AperFunction,Plated,PTH,ViaDrill
T1C0.0118
; #@! TA.AperFunction,Plated,PTH,ComponentDrill
T2C0.0315
%
G90
G05
T1
X5.9075Y-3.9213
X5.9173Y-3.9764
X6.1398Y-3.935
X6.1693Y-3.8051
X6.1732Y-4.1004
X6.1772Y-3.9941
X6.1831Y-3.8484
X6.1988Y-3.9488
X6.2047Y-3.815
X6.248Y-4.2618
X6.2618Y-4.2224
X6.2776Y-4.189
X6.3091Y-3.9311
X6.3583Y-3.8937
X6.3622Y-3.9665
X6.3681Y-4.1496
X6.4114Y-4.1929
X6.4272Y-4.0413
X6.4449Y-3.9016
X6.4803Y-4.2421
X6.4843Y-3.7165
X6.561Y-3.9921
X6.6496Y-3.7559
X6.6831Y-3.9291
T2
X6.5421Y-3.839
X6.5421Y-4.1776
M30
