%TF.GenerationSoftware,KiCad,Pcbnew,9.0.4*%
%TF.CreationDate,2026-01-08T18:44:24+01:00*%
%TF.ProjectId,Piezo_Energy_Harvester,5069657a-6f5f-4456-9e65-7267795f4861,rev?*%
%TF.SameCoordinates,Original*%
%TF.FileFunction,Copper,L2,Bot*%
%TF.FilePolarity,Positive*%
%FSLAX46Y46*%
G04 Gerber Fmt 4.6, Leading zero omitted, Abs format (unit mm)*
G04 Created by KiCad (PCBNEW 9.0.4) date 2026-01-08 18:44:24*
%MOMM*%
%LPD*%
G01*
G04 APERTURE LIST*
%TA.AperFunction,SMDPad,CuDef*%
%ADD10R,1.000000X1.000000*%
%TD*%
%TA.AperFunction,ComponentPad*%
%ADD11R,1.300000X1.300000*%
%TD*%
%TA.AperFunction,ComponentPad*%
%ADD12C,1.300000*%
%TD*%
%TA.AperFunction,ViaPad*%
%ADD13C,0.600000*%
%TD*%
%TA.AperFunction,Conductor*%
%ADD14C,0.200000*%
%TD*%
G04 APERTURE END LIST*
D10*
%TO.P,,3,Pin_1*%
%TO.N,+3.3V*%
X172950000Y-106100000D03*
%TD*%
D11*
%TO.P,C5,1*%
%TO.N,+3.3V*%
X166170000Y-106110000D03*
D12*
%TO.P,C5,2*%
%TO.N,GND*%
X166170000Y-97510000D03*
%TD*%
D10*
%TO.P,,4,Pin_1*%
%TO.N,GND*%
X172900000Y-97500000D03*
%TD*%
D13*
%TO.N,GND*%
X163700000Y-99100000D03*
X157050000Y-97750000D03*
X157600000Y-96900000D03*
X156700000Y-96650000D03*
X157450000Y-100300000D03*
X158700000Y-108250000D03*
X168900000Y-95400000D03*
X164600000Y-107750000D03*
X164700000Y-94400000D03*
X159050000Y-107250000D03*
X156800000Y-104150000D03*
X163250000Y-102650000D03*
X161600000Y-100750000D03*
X166650000Y-101400000D03*
X156900000Y-101450000D03*
X169750000Y-99800000D03*
X161750000Y-105400000D03*
X162850000Y-106500000D03*
X160250000Y-99850000D03*
X155950000Y-99950000D03*
X161500000Y-98900000D03*
X150300000Y-101000000D03*
X159450000Y-106400000D03*
X150050000Y-99600000D03*
%TD*%
D14*
%TO.N,+3.3V*%
X166180000Y-106100000D02*
X172950000Y-106100000D01*
X166170000Y-106110000D02*
X166180000Y-106100000D01*
%TD*%
%TA.AperFunction,Conductor*%
%TO.N,GND*%
G36*
X174242539Y-92320185D02*
G01*
X174288294Y-92372989D01*
X174299500Y-92424500D01*
X174299500Y-111175500D01*
X174279815Y-111242539D01*
X174227011Y-111288294D01*
X174175500Y-111299500D01*
X162454315Y-111299500D01*
X162387276Y-111279815D01*
X162341521Y-111227011D01*
X162331577Y-111157853D01*
X162346928Y-111113499D01*
X162350497Y-111107316D01*
X162350500Y-111107314D01*
X162416392Y-110993186D01*
X162450500Y-110865892D01*
X162450500Y-109734108D01*
X162416392Y-109606814D01*
X162350500Y-109492686D01*
X162257314Y-109399500D01*
X162200250Y-109366554D01*
X162143187Y-109333608D01*
X162079539Y-109316554D01*
X162015892Y-109299500D01*
X150015892Y-109299500D01*
X149884108Y-109299500D01*
X149756812Y-109333608D01*
X149642686Y-109399500D01*
X149642683Y-109399502D01*
X149549502Y-109492683D01*
X149549500Y-109492686D01*
X149531887Y-109523193D01*
X149481319Y-109571408D01*
X149412712Y-109584630D01*
X149347848Y-109558662D01*
X149307320Y-109501748D01*
X149300500Y-109461192D01*
X149300500Y-105412135D01*
X165019500Y-105412135D01*
X165019500Y-106807870D01*
X165019501Y-106807876D01*
X165025908Y-106867483D01*
X165076202Y-107002328D01*
X165076206Y-107002335D01*
X165162452Y-107117544D01*
X165162455Y-107117547D01*
X165277664Y-107203793D01*
X165277671Y-107203797D01*
X165412517Y-107254091D01*
X165412516Y-107254091D01*
X165419444Y-107254835D01*
X165472127Y-107260500D01*
X166867872Y-107260499D01*
X166927483Y-107254091D01*
X167062331Y-107203796D01*
X167177546Y-107117546D01*
X167263796Y-107002331D01*
X167314091Y-106867483D01*
X167320138Y-106811244D01*
X167346876Y-106746693D01*
X167404269Y-106706845D01*
X167443427Y-106700500D01*
X171867209Y-106700500D01*
X171934248Y-106720185D01*
X171980003Y-106772989D01*
X171983391Y-106781167D01*
X172006202Y-106842328D01*
X172006206Y-106842335D01*
X172092452Y-106957544D01*
X172092455Y-106957547D01*
X172207664Y-107043793D01*
X172207671Y-107043797D01*
X172342517Y-107094091D01*
X172342516Y-107094091D01*
X172349444Y-107094835D01*
X172402127Y-107100500D01*
X173497872Y-107100499D01*
X173557483Y-107094091D01*
X173692331Y-107043796D01*
X173807546Y-106957546D01*
X173893796Y-106842331D01*
X173944091Y-106707483D01*
X173950500Y-106647873D01*
X173950499Y-105552128D01*
X173944091Y-105492517D01*
X173939353Y-105479815D01*
X173893797Y-105357671D01*
X173893793Y-105357664D01*
X173807547Y-105242455D01*
X173807544Y-105242452D01*
X173692335Y-105156206D01*
X173692328Y-105156202D01*
X173557482Y-105105908D01*
X173557483Y-105105908D01*
X173497883Y-105099501D01*
X173497881Y-105099500D01*
X173497873Y-105099500D01*
X173497864Y-105099500D01*
X172402129Y-105099500D01*
X172402123Y-105099501D01*
X172342516Y-105105908D01*
X172207671Y-105156202D01*
X172207664Y-105156206D01*
X172092455Y-105242452D01*
X172092452Y-105242455D01*
X172006206Y-105357664D01*
X172006202Y-105357671D01*
X171983391Y-105418833D01*
X171941520Y-105474767D01*
X171876056Y-105499184D01*
X171867209Y-105499500D01*
X167441276Y-105499500D01*
X167374237Y-105479815D01*
X167328482Y-105427011D01*
X167317986Y-105388752D01*
X167314091Y-105352516D01*
X167263797Y-105217671D01*
X167263793Y-105217664D01*
X167177547Y-105102455D01*
X167177544Y-105102452D01*
X167062335Y-105016206D01*
X167062328Y-105016202D01*
X166927482Y-104965908D01*
X166927483Y-104965908D01*
X166867883Y-104959501D01*
X166867881Y-104959500D01*
X166867873Y-104959500D01*
X166867864Y-104959500D01*
X165472129Y-104959500D01*
X165472123Y-104959501D01*
X165412516Y-104965908D01*
X165277671Y-105016202D01*
X165277664Y-105016206D01*
X165162455Y-105102452D01*
X165162452Y-105102455D01*
X165076206Y-105217664D01*
X165076202Y-105217671D01*
X165025908Y-105352517D01*
X165019501Y-105412116D01*
X165019500Y-105412135D01*
X149300500Y-105412135D01*
X149300500Y-97419493D01*
X165020000Y-97419493D01*
X165020000Y-97600506D01*
X165048317Y-97779293D01*
X165104251Y-97951444D01*
X165104252Y-97951447D01*
X165186431Y-98112730D01*
X165197913Y-98128532D01*
X165197913Y-98128533D01*
X165770000Y-97556446D01*
X165770000Y-97562661D01*
X165797259Y-97664394D01*
X165849920Y-97755606D01*
X165924394Y-97830080D01*
X166015606Y-97882741D01*
X166117339Y-97910000D01*
X166123553Y-97910000D01*
X165551466Y-98482085D01*
X165551466Y-98482086D01*
X165567267Y-98493566D01*
X165567275Y-98493571D01*
X165728552Y-98575747D01*
X165728555Y-98575748D01*
X165900706Y-98631682D01*
X166079494Y-98660000D01*
X166260506Y-98660000D01*
X166439293Y-98631682D01*
X166611444Y-98575748D01*
X166611452Y-98575745D01*
X166772730Y-98493568D01*
X166788532Y-98482085D01*
X166788533Y-98482085D01*
X166216448Y-97910000D01*
X166222661Y-97910000D01*
X166324394Y-97882741D01*
X166415606Y-97830080D01*
X166490080Y-97755606D01*
X166542741Y-97664394D01*
X166570000Y-97562661D01*
X166570000Y-97556447D01*
X167142085Y-98128532D01*
X167153568Y-98112730D01*
X167186630Y-98047844D01*
X171900000Y-98047844D01*
X171906401Y-98107372D01*
X171906403Y-98107379D01*
X171956645Y-98242086D01*
X171956649Y-98242093D01*
X172042809Y-98357187D01*
X172042812Y-98357190D01*
X172157906Y-98443350D01*
X172157913Y-98443354D01*
X172292620Y-98493596D01*
X172292627Y-98493598D01*
X172352155Y-98499999D01*
X172352172Y-98500000D01*
X172650000Y-98500000D01*
X173150000Y-98500000D01*
X173447828Y-98500000D01*
X173447844Y-98499999D01*
X173507372Y-98493598D01*
X173507379Y-98493596D01*
X173642086Y-98443354D01*
X173642093Y-98443350D01*
X173757187Y-98357190D01*
X173757190Y-98357187D01*
X173843350Y-98242093D01*
X173843354Y-98242086D01*
X173893596Y-98107379D01*
X173893598Y-98107372D01*
X173899999Y-98047844D01*
X173900000Y-98047827D01*
X173900000Y-97750000D01*
X173150000Y-97750000D01*
X173150000Y-98500000D01*
X172650000Y-98500000D01*
X172650000Y-97750000D01*
X171900000Y-97750000D01*
X171900000Y-98047844D01*
X167186630Y-98047844D01*
X167235745Y-97951452D01*
X167235748Y-97951444D01*
X167291682Y-97779293D01*
X167307530Y-97679240D01*
X167320000Y-97600506D01*
X167320000Y-97419493D01*
X167291682Y-97240706D01*
X167235748Y-97068555D01*
X167235745Y-97068548D01*
X167203440Y-97005147D01*
X167203439Y-97005146D01*
X167176439Y-96952155D01*
X171900000Y-96952155D01*
X171900000Y-97250000D01*
X172650000Y-97250000D01*
X173150000Y-97250000D01*
X173900000Y-97250000D01*
X173900000Y-96952172D01*
X173899999Y-96952155D01*
X173893598Y-96892627D01*
X173893596Y-96892620D01*
X173843354Y-96757913D01*
X173843350Y-96757906D01*
X173757190Y-96642812D01*
X173757187Y-96642809D01*
X173642093Y-96556649D01*
X173642086Y-96556645D01*
X173507379Y-96506403D01*
X173507372Y-96506401D01*
X173447844Y-96500000D01*
X173150000Y-96500000D01*
X173150000Y-97250000D01*
X172650000Y-97250000D01*
X172650000Y-96500000D01*
X172352155Y-96500000D01*
X172292627Y-96506401D01*
X172292620Y-96506403D01*
X172157913Y-96556645D01*
X172157906Y-96556649D01*
X172042812Y-96642809D01*
X172042809Y-96642812D01*
X171956649Y-96757906D01*
X171956645Y-96757913D01*
X171906403Y-96892620D01*
X171906401Y-96892627D01*
X171900000Y-96952155D01*
X167176439Y-96952155D01*
X167153571Y-96907275D01*
X167153566Y-96907267D01*
X167142085Y-96891466D01*
X166570000Y-97463551D01*
X166570000Y-97457339D01*
X166542741Y-97355606D01*
X166490080Y-97264394D01*
X166415606Y-97189920D01*
X166324394Y-97137259D01*
X166222661Y-97110000D01*
X166216447Y-97110000D01*
X166788533Y-96537913D01*
X166772730Y-96526431D01*
X166611447Y-96444252D01*
X166611444Y-96444251D01*
X166439293Y-96388317D01*
X166260506Y-96360000D01*
X166079494Y-96360000D01*
X165900706Y-96388317D01*
X165728555Y-96444251D01*
X165728547Y-96444254D01*
X165567269Y-96526432D01*
X165551466Y-96537912D01*
X165551466Y-96537913D01*
X166123554Y-97110000D01*
X166117339Y-97110000D01*
X166015606Y-97137259D01*
X165924394Y-97189920D01*
X165849920Y-97264394D01*
X165797259Y-97355606D01*
X165770000Y-97457339D01*
X165770000Y-97463553D01*
X165197913Y-96891466D01*
X165197912Y-96891466D01*
X165186432Y-96907269D01*
X165104254Y-97068547D01*
X165104251Y-97068555D01*
X165048317Y-97240706D01*
X165020000Y-97419493D01*
X149300500Y-97419493D01*
X149300500Y-94207676D01*
X149320185Y-94140637D01*
X149372989Y-94094882D01*
X149442147Y-94084938D01*
X149505703Y-94113963D01*
X149512181Y-94119995D01*
X149592686Y-94200500D01*
X149706814Y-94266392D01*
X149834108Y-94300500D01*
X149834110Y-94300500D01*
X161965890Y-94300500D01*
X161965892Y-94300500D01*
X162093186Y-94266392D01*
X162207314Y-94200500D01*
X162300500Y-94107314D01*
X162366392Y-93993186D01*
X162400500Y-93865892D01*
X162400500Y-92734108D01*
X162366392Y-92606814D01*
X162300500Y-92492686D01*
X162300497Y-92492683D01*
X162296928Y-92486501D01*
X162280455Y-92418601D01*
X162303307Y-92352574D01*
X162358228Y-92309383D01*
X162404315Y-92300500D01*
X174175500Y-92300500D01*
X174242539Y-92320185D01*
G37*
%TD.AperFunction*%
%TD*%
M02*
