%TF.GenerationSoftware,KiCad,Pcbnew,9.0.4*%
%TF.CreationDate,2026-01-08T18:44:24+01:00*%
%TF.ProjectId,Piezo_Energy_Harvester,5069657a-6f5f-4456-9e65-7267795f4861,rev?*%
%TF.SameCoordinates,Original*%
%TF.FileFunction,Paste,Top*%
%TF.FilePolarity,Positive*%
%FSLAX46Y46*%
G04 Gerber Fmt 4.6, Leading zero omitted, Abs format (unit mm)*
G04 Created by KiCad (PCBNEW 9.0.4) date 2026-01-08 18:44:24*
%MOMM*%
%LPD*%
G01*
G04 APERTURE LIST*
G04 Aperture macros list*
%AMRoundRect*
0 Rectangle with rounded corners*
0 $1 Rounding radius*
0 $2 $3 $4 $5 $6 $7 $8 $9 X,Y pos of 4 corners*
0 Add a 4 corners polygon primitive as box body*
4,1,4,$2,$3,$4,$5,$6,$7,$8,$9,$2,$3,0*
0 Add four circle primitives for the rounded corners*
1,1,$1+$1,$2,$3*
1,1,$1+$1,$4,$5*
1,1,$1+$1,$6,$7*
1,1,$1+$1,$8,$9*
0 Add four rect primitives between the rounded corners*
20,1,$1+$1,$2,$3,$4,$5,0*
20,1,$1+$1,$4,$5,$6,$7,0*
20,1,$1+$1,$6,$7,$8,$9,0*
20,1,$1+$1,$8,$9,$2,$3,0*%
G04 Aperture macros list end*
%ADD10C,0.100000*%
%ADD11RoundRect,0.237500X-0.300000X-0.237500X0.300000X-0.237500X0.300000X0.237500X-0.300000X0.237500X0*%
%ADD12RoundRect,0.237500X0.237500X-0.300000X0.237500X0.300000X-0.237500X0.300000X-0.237500X-0.300000X0*%
%ADD13RoundRect,0.250000X-0.550000X1.250000X-0.550000X-1.250000X0.550000X-1.250000X0.550000X1.250000X0*%
%ADD14R,1.333500X0.279400*%
%ADD15R,1.930400X2.159000*%
G04 APERTURE END LIST*
D10*
%TO.C,L1*%
X151316000Y-106309000D02*
X151386000Y-106427000D01*
X151464000Y-106539000D01*
X151551000Y-106646000D01*
X151646000Y-106745000D01*
X151748000Y-106836000D01*
X151856000Y-106920000D01*
X151971000Y-106995000D01*
X152091000Y-107062000D01*
X152216000Y-107119000D01*
X152345000Y-107166000D01*
X152477000Y-107203000D01*
X152611000Y-107230000D01*
X152747000Y-107247000D01*
X152884000Y-107254000D01*
X153021000Y-107249000D01*
X153158000Y-107235000D01*
X153293000Y-107210000D01*
X153425000Y-107175000D01*
X153555000Y-107130000D01*
X153681000Y-107076000D01*
X153802000Y-107011000D01*
X153918000Y-106938000D01*
X154028000Y-106856000D01*
X154131000Y-106766000D01*
X154228000Y-106669000D01*
X154317000Y-106564000D01*
X154397000Y-106453000D01*
X154469000Y-106336000D01*
X154538000Y-106200000D01*
X155550000Y-106200000D01*
X155550000Y-108200000D01*
X150250000Y-108200000D01*
X150250000Y-106200000D01*
X151262000Y-106200000D01*
X151316000Y-106309000D01*
G36*
X151316000Y-106309000D02*
G01*
X151386000Y-106427000D01*
X151464000Y-106539000D01*
X151551000Y-106646000D01*
X151646000Y-106745000D01*
X151748000Y-106836000D01*
X151856000Y-106920000D01*
X151971000Y-106995000D01*
X152091000Y-107062000D01*
X152216000Y-107119000D01*
X152345000Y-107166000D01*
X152477000Y-107203000D01*
X152611000Y-107230000D01*
X152747000Y-107247000D01*
X152884000Y-107254000D01*
X153021000Y-107249000D01*
X153158000Y-107235000D01*
X153293000Y-107210000D01*
X153425000Y-107175000D01*
X153555000Y-107130000D01*
X153681000Y-107076000D01*
X153802000Y-107011000D01*
X153918000Y-106938000D01*
X154028000Y-106856000D01*
X154131000Y-106766000D01*
X154228000Y-106669000D01*
X154317000Y-106564000D01*
X154397000Y-106453000D01*
X154469000Y-106336000D01*
X154538000Y-106200000D01*
X155550000Y-106200000D01*
X155550000Y-108200000D01*
X150250000Y-108200000D01*
X150250000Y-106200000D01*
X151262000Y-106200000D01*
X151316000Y-106309000D01*
G37*
X155550000Y-104700000D02*
X154538000Y-104700000D01*
X154469000Y-104564000D01*
X154397000Y-104447000D01*
X154317000Y-104336000D01*
X154228000Y-104231000D01*
X154131000Y-104134000D01*
X154028000Y-104044000D01*
X153918000Y-103962000D01*
X153802000Y-103889000D01*
X153681000Y-103824000D01*
X153555000Y-103770000D01*
X153425000Y-103725000D01*
X153293000Y-103690000D01*
X153158000Y-103665000D01*
X153021000Y-103651000D01*
X152884000Y-103646000D01*
X152747000Y-103653000D01*
X152611000Y-103670000D01*
X152477000Y-103697000D01*
X152345000Y-103734000D01*
X152216000Y-103781000D01*
X152091000Y-103838000D01*
X151971000Y-103905000D01*
X151856000Y-103980000D01*
X151748000Y-104064000D01*
X151646000Y-104155000D01*
X151551000Y-104254000D01*
X151464000Y-104361000D01*
X151386000Y-104473000D01*
X151316000Y-104591000D01*
X151262000Y-104700000D01*
X150250000Y-104700000D01*
X150250000Y-102700000D01*
X155550000Y-102700000D01*
X155550000Y-104700000D01*
G36*
X155550000Y-104700000D02*
G01*
X154538000Y-104700000D01*
X154469000Y-104564000D01*
X154397000Y-104447000D01*
X154317000Y-104336000D01*
X154228000Y-104231000D01*
X154131000Y-104134000D01*
X154028000Y-104044000D01*
X153918000Y-103962000D01*
X153802000Y-103889000D01*
X153681000Y-103824000D01*
X153555000Y-103770000D01*
X153425000Y-103725000D01*
X153293000Y-103690000D01*
X153158000Y-103665000D01*
X153021000Y-103651000D01*
X152884000Y-103646000D01*
X152747000Y-103653000D01*
X152611000Y-103670000D01*
X152477000Y-103697000D01*
X152345000Y-103734000D01*
X152216000Y-103781000D01*
X152091000Y-103838000D01*
X151971000Y-103905000D01*
X151856000Y-103980000D01*
X151748000Y-104064000D01*
X151646000Y-104155000D01*
X151551000Y-104254000D01*
X151464000Y-104361000D01*
X151386000Y-104473000D01*
X151316000Y-104591000D01*
X151262000Y-104700000D01*
X150250000Y-104700000D01*
X150250000Y-102700000D01*
X155550000Y-102700000D01*
X155550000Y-104700000D01*
G37*
%TD*%
D11*
%TO.C,C1*%
X151775000Y-99800000D03*
X153500000Y-99800000D03*
%TD*%
D12*
%TO.C,C2*%
X161490000Y-97252500D03*
X161490000Y-95527500D03*
%TD*%
D13*
%TO.C,C4*%
X159050000Y-102850000D03*
X159050000Y-107250000D03*
%TD*%
D14*
%TO.C,U1*%
X154983850Y-96249240D03*
X154983850Y-96749620D03*
X154983850Y-97250000D03*
X154983850Y-97750380D03*
X154983850Y-98250760D03*
X159416150Y-98250760D03*
X159416150Y-97750380D03*
X159416150Y-97250000D03*
X159416150Y-96749620D03*
X159416150Y-96249240D03*
D15*
X157200000Y-97250000D03*
%TD*%
D11*
%TO.C,C3*%
X151775000Y-101400000D03*
X153500000Y-101400000D03*
%TD*%
M02*
