%TF.GenerationSoftware,KiCad,Pcbnew,9.0.4*%
%TF.CreationDate,2026-01-08T18:44:24+01:00*%
%TF.ProjectId,Piezo_Energy_Harvester,5069657a-6f5f-4456-9e65-7267795f4861,rev?*%
%TF.SameCoordinates,Original*%
%TF.FileFunction,Copper,L1,Top*%
%TF.FilePolarity,Positive*%
%FSLAX46Y46*%
G04 Gerber Fmt 4.6, Leading zero omitted, Abs format (unit mm)*
G04 Created by KiCad (PCBNEW 9.0.4) date 2026-01-08 18:44:24*
%MOMM*%
%LPD*%
G01*
G04 APERTURE LIST*
G04 Aperture macros list*
%AMRoundRect*
0 Rectangle with rounded corners*
0 $1 Rounding radius*
0 $2 $3 $4 $5 $6 $7 $8 $9 X,Y pos of 4 corners*
0 Add a 4 corners polygon primitive as box body*
4,1,4,$2,$3,$4,$5,$6,$7,$8,$9,$2,$3,0*
0 Add four circle primitives for the rounded corners*
1,1,$1+$1,$2,$3*
1,1,$1+$1,$4,$5*
1,1,$1+$1,$6,$7*
1,1,$1+$1,$8,$9*
0 Add four rect primitives between the rounded corners*
20,1,$1+$1,$2,$3,$4,$5,0*
20,1,$1+$1,$4,$5,$6,$7,0*
20,1,$1+$1,$6,$7,$8,$9,0*
20,1,$1+$1,$8,$9,$2,$3,0*%
%AMFreePoly0*
4,1,48,2.685355,0.485355,2.700000,0.450000,2.700000,-1.550000,2.685355,-1.585355,2.650000,-1.600000,1.638000,-1.600000,1.602645,-1.585355,1.593411,-1.572623,1.525342,-1.438458,1.455369,-1.324753,1.377591,-1.216835,1.291181,-1.114891,1.196833,-1.020543,1.096563,-0.932929,0.989705,-0.853271,0.876824,-0.782233,0.759274,-0.719087,0.636952,-0.666663,0.510398,-0.622856,0.382020,-0.588816,
0.250897,-0.564534,0.117546,-0.550907,-0.015637,-0.546046,-0.148617,-0.552841,-0.280950,-0.569383,-0.411304,-0.595648,-0.539669,-0.631629,-0.665042,-0.677307,-0.786400,-0.732647,-0.903121,-0.797816,-1.014943,-0.870743,-1.119975,-0.952435,-1.219263,-1.041015,-1.311502,-1.137138,-1.396034,-1.241102,-1.471925,-1.350075,-1.540037,-1.464892,-1.593197,-1.572196,-1.622014,-1.597376,-1.638000,-1.600000,
-2.650000,-1.600000,-2.685355,-1.585355,-2.700000,-1.550000,-2.700000,0.450000,-2.685355,0.485355,-2.650000,0.500000,2.650000,0.500000,2.685355,0.485355,2.685355,0.485355,$1*%
%AMFreePoly1*
4,1,48,-1.602645,1.585355,-1.593197,1.572196,-1.540037,1.464892,-1.471925,1.350075,-1.396034,1.241102,-1.311502,1.137138,-1.219263,1.041015,-1.119975,0.952435,-1.014943,0.870743,-0.903121,0.797816,-0.786400,0.732647,-0.665042,0.677307,-0.539669,0.631629,-0.411304,0.595648,-0.280950,0.569383,-0.148617,0.552841,-0.015637,0.546046,0.117546,0.550907,0.250897,0.564534,0.382020,0.588816,
0.510398,0.622856,0.636952,0.666663,0.759274,0.719087,0.876824,0.782233,0.989705,0.853271,1.096563,0.932929,1.196833,1.020543,1.291181,1.114891,1.377591,1.216835,1.455369,1.324753,1.525342,1.438458,1.593411,1.572623,1.622467,1.597526,1.638000,1.600000,2.650000,1.600000,2.685355,1.585355,2.700000,1.550000,2.700000,-0.450000,2.685355,-0.485355,2.650000,-0.500000,
-2.650000,-0.500000,-2.685355,-0.485355,-2.700000,-0.450000,-2.700000,1.550000,-2.685355,1.585355,-2.650000,1.600000,-1.638000,1.600000,-1.602645,1.585355,-1.602645,1.585355,$1*%
G04 Aperture macros list end*
%TA.AperFunction,SMDPad,CuDef*%
%ADD10RoundRect,0.237500X-0.300000X-0.237500X0.300000X-0.237500X0.300000X0.237500X-0.300000X0.237500X0*%
%TD*%
%TA.AperFunction,SMDPad,CuDef*%
%ADD11R,1.000000X1.000000*%
%TD*%
%TA.AperFunction,SMDPad,CuDef*%
%ADD12RoundRect,0.237500X0.237500X-0.300000X0.237500X0.300000X-0.237500X0.300000X-0.237500X-0.300000X0*%
%TD*%
%TA.AperFunction,SMDPad,CuDef*%
%ADD13FreePoly0,0.000000*%
%TD*%
%TA.AperFunction,SMDPad,CuDef*%
%ADD14FreePoly1,0.000000*%
%TD*%
%TA.AperFunction,ComponentPad*%
%ADD15R,1.300000X1.300000*%
%TD*%
%TA.AperFunction,ComponentPad*%
%ADD16C,1.300000*%
%TD*%
%TA.AperFunction,SMDPad,CuDef*%
%ADD17RoundRect,0.250000X-0.550000X1.250000X-0.550000X-1.250000X0.550000X-1.250000X0.550000X1.250000X0*%
%TD*%
%TA.AperFunction,SMDPad,CuDef*%
%ADD18R,1.333500X0.279400*%
%TD*%
%TA.AperFunction,SMDPad,CuDef*%
%ADD19R,1.930400X2.159000*%
%TD*%
%TA.AperFunction,ViaPad*%
%ADD20C,0.600000*%
%TD*%
%TA.AperFunction,Conductor*%
%ADD21C,0.200000*%
%TD*%
G04 APERTURE END LIST*
D10*
%TO.P,C1,1*%
%TO.N,Net-(U1-CAP)*%
X151775000Y-99800000D03*
%TO.P,C1,2*%
%TO.N,Net-(U1-VIN)*%
X153500000Y-99800000D03*
%TD*%
D11*
%TO.P,J1,1,Pin_1*%
%TO.N,Net-(J1-Pin_1)*%
X150150000Y-95450000D03*
%TD*%
D12*
%TO.P,C2,1*%
%TO.N,Net-(U1-D1)*%
X161490000Y-97252500D03*
%TO.P,C2,2*%
%TO.N,GND*%
X161490000Y-95527500D03*
%TD*%
D13*
%TO.P,L1,1,1*%
%TO.N,Net-(U1-SW)*%
X152900000Y-103150000D03*
D14*
%TO.P,L1,2,2*%
%TO.N,+3.3V*%
X152900000Y-107750000D03*
%TD*%
D11*
%TO.P,J2,1,Pin_1*%
%TO.N,Net-(J2-Pin_1)*%
X150150000Y-97450000D03*
%TD*%
D15*
%TO.P,C5,1*%
%TO.N,+3.3V*%
X166170000Y-106110000D03*
D16*
%TO.P,C5,2*%
%TO.N,GND*%
X166170000Y-97510000D03*
%TD*%
D17*
%TO.P,C4,1*%
%TO.N,+3.3V*%
X159050000Y-102850000D03*
%TO.P,C4,2*%
%TO.N,GND*%
X159050000Y-107250000D03*
%TD*%
D18*
%TO.P,U1,1,PZ1*%
%TO.N,Net-(J1-Pin_1)*%
X154983850Y-96249240D03*
%TO.P,U1,2,PZ2*%
%TO.N,Net-(J2-Pin_1)*%
X154983850Y-96749620D03*
%TO.P,U1,3,CAP*%
%TO.N,Net-(U1-CAP)*%
X154983850Y-97250000D03*
%TO.P,U1,4,VIN*%
%TO.N,Net-(U1-VIN)*%
X154983850Y-97750380D03*
%TO.P,U1,5,SW*%
%TO.N,Net-(U1-SW)*%
X154983850Y-98250760D03*
%TO.P,U1,6,VOUT*%
%TO.N,+3.3V*%
X159416150Y-98250760D03*
%TO.P,U1,7,VIN2*%
%TO.N,Net-(U1-D1)*%
X159416150Y-97750380D03*
%TO.P,U1,8,D1*%
X159416150Y-97250000D03*
%TO.P,U1,9,D0*%
%TO.N,GND*%
X159416150Y-96749620D03*
%TO.P,U1,10,PGOOD*%
%TO.N,/PGOOD*%
X159416150Y-96249240D03*
D19*
%TO.P,U1,EPAD*%
%TO.N,GND*%
X157200000Y-97250000D03*
%TD*%
D10*
%TO.P,C3,1*%
%TO.N,GND*%
X151775000Y-101400000D03*
%TO.P,C3,2*%
%TO.N,Net-(U1-VIN)*%
X153500000Y-101400000D03*
%TD*%
D20*
%TO.N,GND*%
X163700000Y-99100000D03*
X157050000Y-97750000D03*
X157600000Y-96900000D03*
X156700000Y-96650000D03*
X157450000Y-100300000D03*
X158700000Y-108250000D03*
X168900000Y-95400000D03*
X164600000Y-107750000D03*
X164700000Y-94400000D03*
X159050000Y-107250000D03*
X156800000Y-104150000D03*
X163250000Y-102650000D03*
X161600000Y-100750000D03*
X166650000Y-101400000D03*
X156900000Y-101450000D03*
X169750000Y-99800000D03*
X161750000Y-105400000D03*
X162850000Y-106500000D03*
X160250000Y-99850000D03*
X155950000Y-99950000D03*
X161500000Y-98900000D03*
X150300000Y-101000000D03*
X159450000Y-106400000D03*
X150050000Y-99600000D03*
%TD*%
D21*
%TO.N,GND*%
X159416150Y-96749620D02*
X160310380Y-96749620D01*
X150700000Y-101400000D02*
X150300000Y-101000000D01*
X160310380Y-96749620D02*
X161490000Y-95570000D01*
X161490000Y-95570000D02*
X161490000Y-95527500D01*
X151775000Y-101400000D02*
X150700000Y-101400000D01*
%TO.N,+3.3V*%
X159416150Y-98250760D02*
X159416150Y-102933850D01*
X166170000Y-106110000D02*
X164710000Y-106110000D01*
X155200000Y-106700000D02*
X159050000Y-102850000D01*
X155200000Y-107600000D02*
X155200000Y-106700000D01*
X152900000Y-107750000D02*
X153050000Y-107600000D01*
X159416150Y-102933850D02*
X159100000Y-103250000D01*
X161450000Y-102850000D02*
X159050000Y-102850000D01*
X164710000Y-106110000D02*
X161450000Y-102850000D01*
X153050000Y-107600000D02*
X155200000Y-107600000D01*
%TO.N,Net-(U1-D1)*%
X159522500Y-97252500D02*
X161490000Y-97252500D01*
X159416150Y-97750380D02*
X159416150Y-97250000D01*
X159416150Y-97250000D02*
X159520000Y-97250000D01*
X159520000Y-97250000D02*
X159522500Y-97252500D01*
%TO.N,Net-(U1-CAP)*%
X151775000Y-99350000D02*
X151775000Y-99800000D01*
X154983850Y-97250000D02*
X153875000Y-97250000D01*
X153875000Y-97250000D02*
X151775000Y-99350000D01*
%TO.N,Net-(U1-VIN)*%
X153500000Y-101400000D02*
X153500000Y-99800000D01*
X154983850Y-97750380D02*
X154075780Y-97750380D01*
X154075780Y-97750380D02*
X153500000Y-98326160D01*
X153500000Y-98326160D02*
X153500000Y-99800000D01*
%TO.N,Net-(J1-Pin_1)*%
X152800000Y-95450000D02*
X150150000Y-95450000D01*
X153599240Y-96249240D02*
X152800000Y-95450000D01*
X154983850Y-96249240D02*
X153599240Y-96249240D01*
%TO.N,Net-(U1-SW)*%
X155000000Y-98266910D02*
X154983850Y-98250760D01*
X154500000Y-103150000D02*
X155000000Y-102650000D01*
X152900000Y-103150000D02*
X154500000Y-103150000D01*
X152900000Y-103150000D02*
X154300000Y-103150000D01*
X155000000Y-102650000D02*
X155000000Y-98266910D01*
X154300000Y-103150000D02*
X154600000Y-102850000D01*
%TO.N,Net-(J2-Pin_1)*%
X154983850Y-96749620D02*
X153600380Y-96749620D01*
X153600380Y-96749620D02*
X152900000Y-97450000D01*
X152900000Y-97450000D02*
X150150000Y-97450000D01*
%TD*%
%TA.AperFunction,Conductor*%
%TO.N,GND*%
G36*
X174242539Y-92320185D02*
G01*
X174288294Y-92372989D01*
X174299500Y-92424500D01*
X174299500Y-111175500D01*
X174279815Y-111242539D01*
X174227011Y-111288294D01*
X174175500Y-111299500D01*
X162454315Y-111299500D01*
X162387276Y-111279815D01*
X162341521Y-111227011D01*
X162331577Y-111157853D01*
X162346928Y-111113499D01*
X162350497Y-111107316D01*
X162350500Y-111107314D01*
X162416392Y-110993186D01*
X162450500Y-110865892D01*
X162450500Y-109734108D01*
X162416392Y-109606814D01*
X162350500Y-109492686D01*
X162257314Y-109399500D01*
X162200250Y-109366554D01*
X162143187Y-109333608D01*
X162079539Y-109316554D01*
X162015892Y-109299500D01*
X160160523Y-109299500D01*
X160093484Y-109279815D01*
X160047729Y-109227011D01*
X160037785Y-109157853D01*
X160066810Y-109094297D01*
X160072842Y-109087819D01*
X160192315Y-108968345D01*
X160284356Y-108819124D01*
X160284358Y-108819119D01*
X160339505Y-108652697D01*
X160339506Y-108652690D01*
X160349999Y-108549986D01*
X160350000Y-108549973D01*
X160350000Y-107500000D01*
X157750001Y-107500000D01*
X157750001Y-108549986D01*
X157760494Y-108652697D01*
X157815641Y-108819119D01*
X157815643Y-108819124D01*
X157907684Y-108968345D01*
X158027158Y-109087819D01*
X158060643Y-109149142D01*
X158055659Y-109218834D01*
X158013787Y-109274767D01*
X157948323Y-109299184D01*
X157939477Y-109299500D01*
X149884108Y-109299500D01*
X149756812Y-109333608D01*
X149642686Y-109399500D01*
X149642683Y-109399502D01*
X149549502Y-109492683D01*
X149549500Y-109492686D01*
X149531887Y-109523193D01*
X149481319Y-109571408D01*
X149412712Y-109584630D01*
X149347848Y-109558662D01*
X149307320Y-109501748D01*
X149300500Y-109461192D01*
X149300500Y-98532418D01*
X149320185Y-98465379D01*
X149372989Y-98419624D01*
X149442147Y-98409680D01*
X149467833Y-98416236D01*
X149542517Y-98444091D01*
X149542516Y-98444091D01*
X149549444Y-98444835D01*
X149602127Y-98450500D01*
X150697872Y-98450499D01*
X150757483Y-98444091D01*
X150892331Y-98393796D01*
X151007546Y-98307546D01*
X151093796Y-98192331D01*
X151106074Y-98159412D01*
X151116609Y-98131167D01*
X151158480Y-98075233D01*
X151223944Y-98050816D01*
X151232791Y-98050500D01*
X151925903Y-98050500D01*
X151992942Y-98070185D01*
X152038697Y-98122989D01*
X152048641Y-98192147D01*
X152019616Y-98255703D01*
X152013584Y-98262181D01*
X151485351Y-98790412D01*
X151424028Y-98823897D01*
X151410272Y-98826089D01*
X151324747Y-98834826D01*
X151160984Y-98889092D01*
X151160981Y-98889093D01*
X151014148Y-98979661D01*
X150892161Y-99101648D01*
X150801593Y-99248481D01*
X150801592Y-99248484D01*
X150747326Y-99412247D01*
X150747326Y-99412248D01*
X150747325Y-99412248D01*
X150737000Y-99513315D01*
X150737000Y-100086669D01*
X150737001Y-100086687D01*
X150747325Y-100187752D01*
X150783609Y-100297249D01*
X150801592Y-100351516D01*
X150875499Y-100471339D01*
X150892161Y-100498351D01*
X150906482Y-100512672D01*
X150939967Y-100573995D01*
X150934983Y-100643687D01*
X150906485Y-100688032D01*
X150892552Y-100701965D01*
X150802051Y-100848688D01*
X150802046Y-100848699D01*
X150747819Y-101012347D01*
X150737500Y-101113345D01*
X150737500Y-101150000D01*
X151651000Y-101150000D01*
X151718039Y-101169685D01*
X151763794Y-101222489D01*
X151775000Y-101274000D01*
X151775000Y-101526000D01*
X151755315Y-101593039D01*
X151702511Y-101638794D01*
X151651000Y-101650000D01*
X150737501Y-101650000D01*
X150737501Y-101686654D01*
X150747819Y-101787652D01*
X150802046Y-101951300D01*
X150805101Y-101957851D01*
X150803708Y-101958500D01*
X150819932Y-102017802D01*
X150799006Y-102084465D01*
X150745362Y-102129231D01*
X150695953Y-102139500D01*
X150249998Y-102139500D01*
X150195964Y-102142396D01*
X150195963Y-102142396D01*
X150056559Y-102177976D01*
X150056552Y-102177978D01*
X150017660Y-102194088D01*
X149922811Y-102245880D01*
X149817502Y-102343926D01*
X149744090Y-102467658D01*
X149744085Y-102467667D01*
X149727988Y-102506528D01*
X149727981Y-102506547D01*
X149727980Y-102506552D01*
X149709975Y-102557587D01*
X149697269Y-102645963D01*
X149689501Y-102699997D01*
X149689500Y-102700001D01*
X149689500Y-104700002D01*
X149692396Y-104754035D01*
X149692396Y-104754036D01*
X149727976Y-104893440D01*
X149727978Y-104893447D01*
X149744088Y-104932339D01*
X149792855Y-105021648D01*
X149795882Y-105027191D01*
X149893925Y-105132496D01*
X149893926Y-105132497D01*
X149894405Y-105132781D01*
X150017664Y-105205913D01*
X150030105Y-105211066D01*
X150046050Y-105217671D01*
X150056555Y-105222022D01*
X150107584Y-105240024D01*
X150250000Y-105260500D01*
X150250003Y-105260500D01*
X151261992Y-105260500D01*
X151262000Y-105260500D01*
X151343898Y-105253822D01*
X151343902Y-105253821D01*
X151343906Y-105253821D01*
X151352690Y-105252378D01*
X151361482Y-105250935D01*
X151491463Y-105211066D01*
X151612183Y-105132781D01*
X151643883Y-105105084D01*
X151682675Y-105067343D01*
X151764245Y-104948819D01*
X151806791Y-104862936D01*
X151811233Y-104854760D01*
X151855336Y-104780416D01*
X151860196Y-104772864D01*
X151909431Y-104702168D01*
X151914921Y-104694879D01*
X151968157Y-104629404D01*
X151974871Y-104621807D01*
X152032050Y-104562220D01*
X152038938Y-104555577D01*
X152103936Y-104497590D01*
X152110318Y-104492270D01*
X152177645Y-104439905D01*
X152186018Y-104433935D01*
X152257503Y-104387314D01*
X152264766Y-104382925D01*
X152339912Y-104340969D01*
X152348902Y-104336420D01*
X152358517Y-104332036D01*
X152424121Y-104302121D01*
X152433113Y-104298438D01*
X152512400Y-104269550D01*
X152521356Y-104266668D01*
X152603764Y-104243569D01*
X152612688Y-104241423D01*
X152696723Y-104224490D01*
X152705807Y-104223009D01*
X152791640Y-104212280D01*
X152800667Y-104211488D01*
X152882659Y-104207297D01*
X152893482Y-104207218D01*
X152978234Y-104210311D01*
X152986251Y-104210866D01*
X153073330Y-104219765D01*
X153083275Y-104221192D01*
X153165347Y-104236391D01*
X153174519Y-104238452D01*
X153256869Y-104260287D01*
X153265601Y-104262953D01*
X153348467Y-104291638D01*
X153356740Y-104294838D01*
X153432490Y-104327302D01*
X153442310Y-104332032D01*
X153458960Y-104340976D01*
X153516034Y-104371636D01*
X153523398Y-104375924D01*
X153592381Y-104419336D01*
X153596602Y-104421992D01*
X153604668Y-104427524D01*
X153671711Y-104477502D01*
X153679190Y-104483542D01*
X153744869Y-104540931D01*
X153750960Y-104546626D01*
X153811731Y-104607397D01*
X153818641Y-104614900D01*
X153872027Y-104677883D01*
X153878030Y-104685558D01*
X153890030Y-104702207D01*
X153927705Y-104754482D01*
X153932715Y-104761995D01*
X153976905Y-104833804D01*
X153981875Y-104842678D01*
X154007630Y-104893440D01*
X154038151Y-104953597D01*
X154038162Y-104953616D01*
X154079727Y-105021643D01*
X154079733Y-105021652D01*
X154089882Y-105035646D01*
X154089888Y-105035654D01*
X154181925Y-105132496D01*
X154305664Y-105205913D01*
X154318105Y-105211066D01*
X154334050Y-105217671D01*
X154344555Y-105222022D01*
X154395584Y-105240024D01*
X154538000Y-105260500D01*
X154538003Y-105260500D01*
X155490903Y-105260500D01*
X155512148Y-105266738D01*
X155534237Y-105268318D01*
X155545020Y-105276390D01*
X155557942Y-105280185D01*
X155572441Y-105296918D01*
X155590170Y-105310190D01*
X155594877Y-105322810D01*
X155603697Y-105332989D01*
X155606848Y-105354906D01*
X155614587Y-105375654D01*
X155611724Y-105388814D01*
X155613641Y-105402147D01*
X155604441Y-105422290D01*
X155599735Y-105443927D01*
X155586466Y-105461652D01*
X155584616Y-105465703D01*
X155578584Y-105472181D01*
X155447584Y-105603181D01*
X155386261Y-105636666D01*
X155359903Y-105639500D01*
X154538000Y-105639500D01*
X154537996Y-105639500D01*
X154537976Y-105639501D01*
X154458505Y-105645790D01*
X154458484Y-105645792D01*
X154441419Y-105648511D01*
X154441402Y-105648514D01*
X154313412Y-105686772D01*
X154313411Y-105686773D01*
X154191956Y-105763902D01*
X154159985Y-105791304D01*
X154120850Y-105828660D01*
X154120848Y-105828662D01*
X154038159Y-105946389D01*
X154038158Y-105946391D01*
X154038155Y-105946395D01*
X154038154Y-105946398D01*
X153987999Y-106045251D01*
X153981880Y-106057312D01*
X153976905Y-106066194D01*
X153932715Y-106138003D01*
X153927705Y-106145516D01*
X153878032Y-106214438D01*
X153872027Y-106222115D01*
X153818641Y-106285098D01*
X153811731Y-106292601D01*
X153750960Y-106353372D01*
X153744869Y-106359067D01*
X153679190Y-106416456D01*
X153671711Y-106422496D01*
X153604668Y-106472474D01*
X153596602Y-106478006D01*
X153523398Y-106524074D01*
X153516034Y-106528362D01*
X153442318Y-106567962D01*
X153432482Y-106572700D01*
X153356740Y-106605160D01*
X153348457Y-106608364D01*
X153265617Y-106637040D01*
X153256844Y-106639717D01*
X153193849Y-106656421D01*
X153174542Y-106661540D01*
X153165343Y-106663608D01*
X153083289Y-106678804D01*
X153073315Y-106680235D01*
X152986270Y-106689130D01*
X152978204Y-106689688D01*
X152893505Y-106692779D01*
X152882657Y-106692700D01*
X152800679Y-106688511D01*
X152791628Y-106687716D01*
X152705822Y-106676991D01*
X152696708Y-106675505D01*
X152612710Y-106658580D01*
X152603739Y-106656422D01*
X152576676Y-106648836D01*
X152521372Y-106633334D01*
X152512391Y-106630444D01*
X152433118Y-106601561D01*
X152424121Y-106597877D01*
X152348902Y-106563578D01*
X152339899Y-106559022D01*
X152264779Y-106517080D01*
X152257491Y-106512676D01*
X152186018Y-106466063D01*
X152177626Y-106460079D01*
X152110336Y-106407741D01*
X152103926Y-106402399D01*
X152052283Y-106356326D01*
X152038952Y-106344433D01*
X152032033Y-106337761D01*
X151974879Y-106278199D01*
X151968147Y-106270581D01*
X151914931Y-106205132D01*
X151909422Y-106197817D01*
X151860205Y-106127146D01*
X151855330Y-106119571D01*
X151818559Y-106057587D01*
X151811237Y-106045243D01*
X151806788Y-106037056D01*
X151764245Y-105951181D01*
X151721904Y-105880760D01*
X151711511Y-105866285D01*
X151711509Y-105866282D01*
X151711508Y-105866281D01*
X151618076Y-105767505D01*
X151618072Y-105767502D01*
X151494341Y-105694090D01*
X151494336Y-105694087D01*
X151494334Y-105694086D01*
X151494332Y-105694085D01*
X151455471Y-105677988D01*
X151455458Y-105677983D01*
X151455445Y-105677978D01*
X151404416Y-105659976D01*
X151404414Y-105659975D01*
X151404412Y-105659975D01*
X151319477Y-105647763D01*
X151262000Y-105639500D01*
X150250000Y-105639500D01*
X150249998Y-105639500D01*
X150195964Y-105642396D01*
X150195963Y-105642396D01*
X150056559Y-105677976D01*
X150056552Y-105677978D01*
X150017660Y-105694088D01*
X149922811Y-105745880D01*
X149817502Y-105843926D01*
X149744090Y-105967658D01*
X149744085Y-105967667D01*
X149727988Y-106006528D01*
X149727981Y-106006547D01*
X149727978Y-106006555D01*
X149714327Y-106045251D01*
X149709975Y-106057587D01*
X149689500Y-106200001D01*
X149689500Y-108200002D01*
X149692396Y-108254035D01*
X149692396Y-108254036D01*
X149727976Y-108393440D01*
X149727978Y-108393447D01*
X149744088Y-108432339D01*
X149795880Y-108527188D01*
X149795882Y-108527191D01*
X149893925Y-108632496D01*
X149893926Y-108632497D01*
X149927972Y-108652697D01*
X150017664Y-108705913D01*
X150056555Y-108722022D01*
X150107584Y-108740024D01*
X150250000Y-108760500D01*
X150250003Y-108760500D01*
X155550002Y-108760500D01*
X155555499Y-108760205D01*
X155604034Y-108757604D01*
X155743445Y-108722022D01*
X155782336Y-108705913D01*
X155877191Y-108654118D01*
X155982496Y-108556075D01*
X156055913Y-108432336D01*
X156072022Y-108393445D01*
X156090024Y-108342416D01*
X156110500Y-108200000D01*
X156110500Y-106690096D01*
X156130185Y-106623057D01*
X156146814Y-106602420D01*
X156799221Y-105950013D01*
X157750000Y-105950013D01*
X157750000Y-107000000D01*
X158800000Y-107000000D01*
X159300000Y-107000000D01*
X160349999Y-107000000D01*
X160349999Y-105950022D01*
X160349998Y-105950013D01*
X160339505Y-105847302D01*
X160284358Y-105680880D01*
X160284356Y-105680875D01*
X160192315Y-105531654D01*
X160068345Y-105407684D01*
X159919124Y-105315643D01*
X159919119Y-105315641D01*
X159752697Y-105260494D01*
X159752690Y-105260493D01*
X159649986Y-105250000D01*
X159300000Y-105250000D01*
X159300000Y-107000000D01*
X158800000Y-107000000D01*
X158800000Y-105250000D01*
X158450028Y-105250000D01*
X158450012Y-105250001D01*
X158347302Y-105260494D01*
X158180880Y-105315641D01*
X158180875Y-105315643D01*
X158031654Y-105407684D01*
X157907684Y-105531654D01*
X157815643Y-105680875D01*
X157815641Y-105680880D01*
X157760494Y-105847302D01*
X157760493Y-105847309D01*
X157750000Y-105950013D01*
X156799221Y-105950013D01*
X157977589Y-104771644D01*
X158038910Y-104738161D01*
X158108602Y-104743145D01*
X158130364Y-104753788D01*
X158180659Y-104784810D01*
X158180660Y-104784810D01*
X158180666Y-104784814D01*
X158347203Y-104839999D01*
X158449991Y-104850500D01*
X159650008Y-104850499D01*
X159752797Y-104839999D01*
X159919334Y-104784814D01*
X160068656Y-104692712D01*
X160192712Y-104568656D01*
X160284814Y-104419334D01*
X160339999Y-104252797D01*
X160350500Y-104150009D01*
X160350500Y-103574500D01*
X160370185Y-103507461D01*
X160422989Y-103461706D01*
X160474500Y-103450500D01*
X161149903Y-103450500D01*
X161216942Y-103470185D01*
X161237584Y-103486819D01*
X164225139Y-106474374D01*
X164225149Y-106474385D01*
X164229479Y-106478715D01*
X164229480Y-106478716D01*
X164341284Y-106590520D01*
X164341286Y-106590521D01*
X164341290Y-106590524D01*
X164424460Y-106638542D01*
X164424461Y-106638542D01*
X164478215Y-106669577D01*
X164630942Y-106710500D01*
X164630943Y-106710500D01*
X164897649Y-106710500D01*
X164964688Y-106730185D01*
X165010443Y-106782989D01*
X165020939Y-106821248D01*
X165025908Y-106867483D01*
X165076202Y-107002328D01*
X165076206Y-107002335D01*
X165162452Y-107117544D01*
X165162455Y-107117547D01*
X165277664Y-107203793D01*
X165277671Y-107203797D01*
X165412517Y-107254091D01*
X165412516Y-107254091D01*
X165419444Y-107254835D01*
X165472127Y-107260500D01*
X166867872Y-107260499D01*
X166927483Y-107254091D01*
X167062331Y-107203796D01*
X167177546Y-107117546D01*
X167263796Y-107002331D01*
X167314091Y-106867483D01*
X167320500Y-106807873D01*
X167320499Y-105412128D01*
X167314091Y-105352517D01*
X167307556Y-105334997D01*
X167263797Y-105217671D01*
X167263793Y-105217664D01*
X167177547Y-105102455D01*
X167177544Y-105102452D01*
X167062335Y-105016206D01*
X167062328Y-105016202D01*
X166927482Y-104965908D01*
X166927483Y-104965908D01*
X166867883Y-104959501D01*
X166867881Y-104959500D01*
X166867873Y-104959500D01*
X166867864Y-104959500D01*
X165472129Y-104959500D01*
X165472123Y-104959501D01*
X165412516Y-104965908D01*
X165277671Y-105016202D01*
X165277664Y-105016206D01*
X165162455Y-105102452D01*
X165162452Y-105102455D01*
X165076206Y-105217664D01*
X165076202Y-105217671D01*
X165032443Y-105334997D01*
X164990572Y-105390931D01*
X164925108Y-105415348D01*
X164856835Y-105400496D01*
X164828580Y-105379345D01*
X161937590Y-102488355D01*
X161937588Y-102488352D01*
X161818717Y-102369481D01*
X161818716Y-102369480D01*
X161731904Y-102319360D01*
X161731904Y-102319359D01*
X161731900Y-102319358D01*
X161681785Y-102290423D01*
X161529057Y-102249499D01*
X161370943Y-102249499D01*
X161363347Y-102249499D01*
X161363331Y-102249500D01*
X160474499Y-102249500D01*
X160407460Y-102229815D01*
X160361705Y-102177011D01*
X160350499Y-102125500D01*
X160350499Y-101549998D01*
X160350498Y-101549981D01*
X160339999Y-101447203D01*
X160339998Y-101447200D01*
X160284814Y-101280666D01*
X160192712Y-101131344D01*
X160068656Y-101007288D01*
X160068651Y-101007285D01*
X160063738Y-101003400D01*
X160023362Y-100946378D01*
X160016650Y-100906134D01*
X160016650Y-99014607D01*
X160036335Y-98947568D01*
X160089139Y-98901813D01*
X160127611Y-98892623D01*
X160127471Y-98891314D01*
X160190383Y-98884551D01*
X160299500Y-98843853D01*
X160325231Y-98834256D01*
X160440446Y-98748006D01*
X160526696Y-98632791D01*
X160576991Y-98497943D01*
X160583400Y-98438333D01*
X160583399Y-98226450D01*
X160603083Y-98159412D01*
X160655887Y-98113657D01*
X160725045Y-98103713D01*
X160785590Y-98131363D01*
X160785987Y-98130862D01*
X160788029Y-98132476D01*
X160788601Y-98132738D01*
X160789962Y-98134005D01*
X160791647Y-98135338D01*
X160791649Y-98135339D01*
X160791650Y-98135340D01*
X160938484Y-98225908D01*
X161102247Y-98280174D01*
X161203323Y-98290500D01*
X161776676Y-98290499D01*
X161776684Y-98290498D01*
X161776687Y-98290498D01*
X161832030Y-98284844D01*
X161877753Y-98280174D01*
X162041516Y-98225908D01*
X162188350Y-98135340D01*
X162310340Y-98013350D01*
X162400908Y-97866516D01*
X162455174Y-97702753D01*
X162465500Y-97601677D01*
X162465499Y-97419493D01*
X165020000Y-97419493D01*
X165020000Y-97600506D01*
X165048317Y-97779293D01*
X165104251Y-97951444D01*
X165104252Y-97951447D01*
X165186431Y-98112730D01*
X165197913Y-98128532D01*
X165197913Y-98128533D01*
X165770000Y-97556446D01*
X165770000Y-97562661D01*
X165797259Y-97664394D01*
X165849920Y-97755606D01*
X165924394Y-97830080D01*
X166015606Y-97882741D01*
X166117339Y-97910000D01*
X166123553Y-97910000D01*
X165551466Y-98482085D01*
X165551466Y-98482086D01*
X165567267Y-98493566D01*
X165567275Y-98493571D01*
X165728552Y-98575747D01*
X165728555Y-98575748D01*
X165900706Y-98631682D01*
X166079494Y-98660000D01*
X166260506Y-98660000D01*
X166439293Y-98631682D01*
X166611444Y-98575748D01*
X166611452Y-98575745D01*
X166772730Y-98493568D01*
X166788532Y-98482085D01*
X166788533Y-98482085D01*
X166216448Y-97910000D01*
X166222661Y-97910000D01*
X166324394Y-97882741D01*
X166415606Y-97830080D01*
X166490080Y-97755606D01*
X166542741Y-97664394D01*
X166570000Y-97562661D01*
X166570000Y-97556447D01*
X167142085Y-98128532D01*
X167153568Y-98112730D01*
X167235745Y-97951452D01*
X167235748Y-97951444D01*
X167291682Y-97779293D01*
X167320000Y-97600506D01*
X167320000Y-97419493D01*
X167291682Y-97240706D01*
X167235748Y-97068555D01*
X167235747Y-97068552D01*
X167153571Y-96907275D01*
X167153566Y-96907267D01*
X167142085Y-96891466D01*
X166570000Y-97463551D01*
X166570000Y-97457339D01*
X166542741Y-97355606D01*
X166490080Y-97264394D01*
X166415606Y-97189920D01*
X166324394Y-97137259D01*
X166222661Y-97110000D01*
X166216447Y-97110000D01*
X166788533Y-96537913D01*
X166772730Y-96526431D01*
X166611447Y-96444252D01*
X166611444Y-96444251D01*
X166439293Y-96388317D01*
X166260506Y-96360000D01*
X166079494Y-96360000D01*
X165900706Y-96388317D01*
X165728555Y-96444251D01*
X165728547Y-96444254D01*
X165567269Y-96526432D01*
X165551466Y-96537912D01*
X165551466Y-96537913D01*
X166123554Y-97110000D01*
X166117339Y-97110000D01*
X166015606Y-97137259D01*
X165924394Y-97189920D01*
X165849920Y-97264394D01*
X165797259Y-97355606D01*
X165770000Y-97457339D01*
X165770000Y-97463553D01*
X165197912Y-96891466D01*
X165186432Y-96907269D01*
X165104254Y-97068547D01*
X165104251Y-97068555D01*
X165048317Y-97240706D01*
X165020000Y-97419493D01*
X162465499Y-97419493D01*
X162465499Y-97240706D01*
X162465499Y-96903330D01*
X162465498Y-96903312D01*
X162455174Y-96802247D01*
X162400908Y-96638484D01*
X162310340Y-96491650D01*
X162287148Y-96468458D01*
X162280236Y-96457995D01*
X162273507Y-96436103D01*
X162262532Y-96416004D01*
X162263437Y-96403342D01*
X162259708Y-96391209D01*
X162265882Y-96369156D01*
X162267516Y-96346312D01*
X162275954Y-96333181D01*
X162278546Y-96323927D01*
X162286375Y-96316968D01*
X162296021Y-96301960D01*
X162309947Y-96288035D01*
X162400448Y-96141311D01*
X162400453Y-96141300D01*
X162454680Y-95977652D01*
X162464999Y-95876654D01*
X162465000Y-95876641D01*
X162465000Y-95777500D01*
X160515790Y-95777500D01*
X160448751Y-95757815D01*
X160441479Y-95752767D01*
X160325231Y-95665744D01*
X160325228Y-95665742D01*
X160190382Y-95615448D01*
X160190383Y-95615448D01*
X160130783Y-95609041D01*
X160130781Y-95609040D01*
X160130773Y-95609040D01*
X160130764Y-95609040D01*
X158701529Y-95609040D01*
X158701523Y-95609041D01*
X158641916Y-95615448D01*
X158507071Y-95665742D01*
X158507064Y-95665746D01*
X158473343Y-95690990D01*
X158407879Y-95715407D01*
X158355700Y-95707905D01*
X158272579Y-95676903D01*
X158272572Y-95676901D01*
X158213044Y-95670500D01*
X157450000Y-95670500D01*
X157450000Y-98829500D01*
X158213028Y-98829500D01*
X158213044Y-98829499D01*
X158272572Y-98823098D01*
X158272576Y-98823097D01*
X158355700Y-98792094D01*
X158425392Y-98787110D01*
X158473344Y-98809009D01*
X158507069Y-98834256D01*
X158532800Y-98843853D01*
X158641916Y-98884551D01*
X158704831Y-98891316D01*
X158704643Y-98893057D01*
X158764079Y-98913961D01*
X158806996Y-98969097D01*
X158815650Y-99014609D01*
X158815650Y-100725500D01*
X158795965Y-100792539D01*
X158743161Y-100838294D01*
X158691651Y-100849500D01*
X158449999Y-100849500D01*
X158449980Y-100849501D01*
X158347203Y-100860000D01*
X158347200Y-100860001D01*
X158180668Y-100915185D01*
X158180663Y-100915187D01*
X158031342Y-101007289D01*
X157907289Y-101131342D01*
X157815187Y-101280663D01*
X157815186Y-101280666D01*
X157760001Y-101447203D01*
X157760001Y-101447204D01*
X157760000Y-101447204D01*
X157749500Y-101549983D01*
X157749500Y-103249902D01*
X157729815Y-103316941D01*
X157713181Y-103337583D01*
X156322181Y-104728583D01*
X156260858Y-104762068D01*
X156191166Y-104757084D01*
X156135233Y-104715212D01*
X156110816Y-104649748D01*
X156110500Y-104640902D01*
X156110500Y-102699997D01*
X156110057Y-102691751D01*
X156107604Y-102645966D01*
X156072022Y-102506555D01*
X156055913Y-102467664D01*
X156004118Y-102372809D01*
X155906075Y-102267504D01*
X155906074Y-102267503D01*
X155906073Y-102267502D01*
X155782341Y-102194090D01*
X155782336Y-102194087D01*
X155782334Y-102194086D01*
X155782332Y-102194085D01*
X155743471Y-102177988D01*
X155743458Y-102177983D01*
X155743445Y-102177978D01*
X155692416Y-102159976D01*
X155692412Y-102159975D01*
X155686671Y-102157950D01*
X155687298Y-102156170D01*
X155634490Y-102125460D01*
X155602668Y-102063257D01*
X155600500Y-102040171D01*
X155600500Y-99012875D01*
X155620185Y-98945836D01*
X155672989Y-98900081D01*
X155711245Y-98889585D01*
X155758083Y-98884551D01*
X155892931Y-98834256D01*
X155926656Y-98809009D01*
X155992117Y-98784592D01*
X156044300Y-98792094D01*
X156127423Y-98823097D01*
X156127427Y-98823098D01*
X156186955Y-98829499D01*
X156186972Y-98829500D01*
X156950000Y-98829500D01*
X156950000Y-95670500D01*
X156186955Y-95670500D01*
X156127427Y-95676901D01*
X156127419Y-95676903D01*
X156044299Y-95707905D01*
X155974607Y-95712889D01*
X155926655Y-95690989D01*
X155892935Y-95665746D01*
X155892928Y-95665742D01*
X155758082Y-95615448D01*
X155758083Y-95615448D01*
X155698483Y-95609041D01*
X155698481Y-95609040D01*
X155698473Y-95609040D01*
X155698464Y-95609040D01*
X154269229Y-95609040D01*
X154269223Y-95609041D01*
X154209616Y-95615448D01*
X154141320Y-95640922D01*
X154135690Y-95641937D01*
X154132922Y-95643717D01*
X154097987Y-95648740D01*
X153899337Y-95648740D01*
X153832298Y-95629055D01*
X153811656Y-95612421D01*
X153287590Y-95088355D01*
X153287588Y-95088352D01*
X153168717Y-94969481D01*
X153168709Y-94969475D01*
X153052059Y-94902128D01*
X153052056Y-94902127D01*
X153031785Y-94890423D01*
X152879057Y-94849499D01*
X152720943Y-94849499D01*
X152713347Y-94849499D01*
X152713331Y-94849500D01*
X151232791Y-94849500D01*
X151165752Y-94829815D01*
X151119997Y-94777011D01*
X151116609Y-94768833D01*
X151093797Y-94707671D01*
X151093793Y-94707664D01*
X151007547Y-94592455D01*
X151007544Y-94592452D01*
X150915792Y-94523766D01*
X150873921Y-94467832D01*
X150868937Y-94398141D01*
X150902423Y-94336818D01*
X150963746Y-94303334D01*
X150990103Y-94300500D01*
X160936937Y-94300500D01*
X161003976Y-94320185D01*
X161049731Y-94372989D01*
X161059675Y-94442147D01*
X161030650Y-94505703D01*
X160975941Y-94542206D01*
X160938699Y-94554546D01*
X160938688Y-94554551D01*
X160791965Y-94645052D01*
X160791961Y-94645055D01*
X160670055Y-94766961D01*
X160670052Y-94766965D01*
X160579551Y-94913688D01*
X160579546Y-94913699D01*
X160525319Y-95077347D01*
X160515000Y-95178345D01*
X160515000Y-95277500D01*
X162464999Y-95277500D01*
X162464999Y-95178360D01*
X162464998Y-95178345D01*
X162454680Y-95077347D01*
X162400453Y-94913699D01*
X162400448Y-94913688D01*
X162309947Y-94766965D01*
X162309944Y-94766961D01*
X162188038Y-94645055D01*
X162188034Y-94645052D01*
X162041311Y-94554551D01*
X162041300Y-94554546D01*
X161976854Y-94533191D01*
X161919409Y-94493418D01*
X161892586Y-94428902D01*
X161904901Y-94360127D01*
X161952444Y-94308927D01*
X161983758Y-94295712D01*
X162093186Y-94266392D01*
X162207314Y-94200500D01*
X162300500Y-94107314D01*
X162366392Y-93993186D01*
X162400500Y-93865892D01*
X162400500Y-92734108D01*
X162366392Y-92606814D01*
X162300500Y-92492686D01*
X162300497Y-92492683D01*
X162296928Y-92486501D01*
X162280455Y-92418601D01*
X162303307Y-92352574D01*
X162358228Y-92309383D01*
X162404315Y-92300500D01*
X174175500Y-92300500D01*
X174242539Y-92320185D01*
G37*
%TD.AperFunction*%
%TD*%
M02*
